PathFileType	4	(X/Y/Z)	Walk4.trc
DataRate	CameraRate	NumFrames	NumMarkers	Units	OrigDataRate	OrigDataStartFrame	OrigNumFrames
200.000000	200.000000	6	61	mm	200.000000	755	877
Frame#	Times		RCAR		LTH3		RTH2		LBHD		LWRU		LUA1		LFA1		LCAR		RFA1		LElbow		RTB3		RTB1		RToe		RTB2		RMT5		RBHD		LWRR		LTH2		LElbowM		RPSI		C7		RLFC		RMT1		LTH4		STRN		LASI		RLMAL		RBack		T10		LTH1		LPSI		CLAV		LLFC		RUA1		LACR1		RCAL		LTB3		RElbowM		RTH3		LCAL		RTH1		RFHD		RElbow		LTB1		LMMAL		LTB2		LFHD		RTH4		RASI		LMFC		LTB4		RMMAL		LMT5		RMFC		RACR1		RWRR		RWRU		LLMAL		RTB4		LToe		LMT1
			X1	Y1	Z1	X2	Y2	Z2	X3	Y3	Z3	X4	Y4	Z4	X5	Y5	Z5	X6	Y6	Z6	X7	Y7	Z7	X8	Y8	Z8	X9	Y9	Z9	X10	Y10	Z10	X11	Y11	Z11	X12	Y12	Z12	X13	Y13	Z13	X14	Y14	Z14	X15	Y15	Z15	X16	Y16	Z16	X17	Y17	Z17	X18	Y18	Z18	X19	Y19	Z19	X20	Y20	Z20	X21	Y21	Z21	X22	Y22	Z22	X23	Y23	Z23	X24	Y24	Z24	X25	Y25	Z25	X26	Y26	Z26	X27	Y27	Z27	X28	Y28	Z28	X29	Y29	Z29	X30	Y30	Z30	X31	Y31	Z31	X32	Y32	Z32	X33	Y33	Z33	X34	Y34	Z34	X35	Y35	Z35	X36	Y36	Z36	X37	Y37	Z37	X38	Y38	Z38	X39	Y39	Z39	X40	Y40	Z40	X41	Y41	Z41	X42	Y42	Z42	X43	Y43	Z43	X44	Y44	Z44	X45	Y45	Z45	X46	Y46	Z46	X47	Y47	Z47	X48	Y48	Z48	X49	Y49	Z49	X50	Y50	Z50	X51	Y51	Z51	X52	Y52	Z52	X53	Y53	Z53	X54	Y54	Z54	X55	Y55	Z55	X56	Y56	Z56	X57	Y57	Z57	X58	Y58	Z58	X59	Y59	Z59	X60	Y60	Z60	X61	Y61	Z61

755	3.775	658.36	913.06	290.12	450.23	623.16	-140.74	388.14	689.72	185.5	348.55	1638.5	-50.94	268.67	854.01	-213	294.74	1289.4	-224.92	247.04	986.02	-232.57	334.54	805.73	-222.71	510.16	1016.8	332.1	242.14	1138.7	-234.19	211.24	187.69	105.36	276.77	361.87	122.87	331.02	29.112	124.97	221.86	272.63	179.04	225.77	25.594	180.24	360.81	1647	90.405	343.03	863.48	-175.72	484.1	734.59	-122.58	217.13	1138.3	-160	201.1	1028.4	94.326	321.58	1512	27.897	260.38	496.4	197.99	274.87	38.059	100.46	421.88	711.11	-150.94	484.92	1242.4	19.551	400.74	1028.8	-101.26	136.77	77.306	145.62	255.54	1429.5	171.75	207.42	1293.7	42.7	394.91	800.59	-155.76	194.61	1021.1	16.722	448.54	1417.6	19.917	470.17	527.35	-133.21	420.84	1302.6	283.74	374.02	1458.8	-143.69	76.37	46.295	97.393	585.26	223.37	-80.145	381.9	1120.7	269.03	297.95	612.18	206.57	532.98	26.859	-79.694	344.7	796.45	227.77	536.61	1677	52.691	425.45	1147.9	334.45	554.57	406.68	-69.659	598.05	112.39	-46.455	539.85	317.98	-143.81	530.86	1673.5	-23.865	324.47	702.35	220.31	416.63	1034.7	187.43	483.9	527.03	-2.5993	569.34	318.18	-73.649	170.88	96.151	64.457	684.7	60.973	-157.67	263.89	512.68	66.32	410.05	1464.3	178.2	622.67	944.23	242.02	591.41	909.72	304.88	571.94	85.916	-126.6	244.89	274.43	112.76	763.58	106.36	-99.197	722.92	85.761	-80.243
756	3.78	665.67	914.35	289.22	453.7	621.47	-141.08	391.66	689.11	185.43	353.63	1637.8	-51.401	271.9	853.44	-212.82	299.5	1288.8	-225.25	250.8	985.52	-232.53	337.55	804.89	-222.44	516.81	1016.9	331.57	246.51	1138.2	-234.31	211.97	187.9	105.35	278.33	361.81	122.87	331	29.081	124.97	222.88	272.88	179.03	225.7	25.581	180.17	365.9	1646.4	89.945	346.3	862.66	-175.52	488.08	732.69	-122.66	221.47	1138	-160.14	206.34	1027.7	93.764	326.64	1511.4	27.445	262.54	496.55	197.85	274.9	38.062	100.46	425.82	709.58	-151.21	490.1	1241.8	19.242	406.16	1028.1	-101.52	136.92	77.877	145.61	260.54	1428.8	171.29	212.5	1293.1	42.101	399.31	799.2	-155.96	199.95	1020.3	16.176	453.65	1416.9	19.544	474.5	526.28	-132.98	426.18	1302.1	283.4	379.18	1458.1	-144.14	76.464	47.098	97.285	595.15	224.24	-79.878	387.84	1120.1	268.83	300.88	612.2	206.31	546.46	26.642	-80.153	348.8	796.11	227.46	541.69	1676.4	52.218	431.25	1147.5	334.26	560.97	407.02	-69.19	609.8	113.41	-46.289	548.3	318.15	-143.61	535.94	1672.9	-24.347	327.94	702.15	219.91	421.72	1034.2	187.21	487.26	525.53	-1.8276	577.46	318.78	-73.291	171.22	96.526	64.476	698.39	63.282	-156.97	266.32	512.78	66.108	415.04	1463.7	177.78	629.7	945.3	241.23	598.76	910.43	304.06	584.77	86.555	-126.67	246.03	274.5	112.76	776.06	109.88	-97.689	735.57	88.575	-79.102
757	3.785	672.87	915.57	288.35	457.24	619.79	-141.45	395.24	688.52	185.36	358.71	1637.1	-51.887	275.2	852.86	-212.7	304.32	1288.1	-225.6	254.65	985	-232.54	340.65	804.02	-222.22	523.37	1017	331.04	250.97	1137.7	-234.47	212.75	188.13	105.34	279.98	361.75	122.85	330.97	29.045	124.96	223.97	273.15	179.01	225.64	25.57	180.09	370.99	1645.7	89.461	349.64	861.82	-175.39	492.13	730.81	-122.8	225.87	1137.7	-160.33	211.62	1027	93.164	331.7	1510.7	26.968	264.82	496.7	197.69	274.93	38.073	100.46	429.82	708.06	-151.52	495.29	1241.2	18.901	411.61	1027.3	-101.81	137.09	78.486	145.6	265.52	1428.1	170.79	217.59	1292.4	41.468	403.76	797.8	-156.21	205.32	1019.5	15.59	458.76	1416.3	19.146	478.93	525.24	-132.74	431.48	1301.7	283.04	384.35	1457.4	-144.62	76.573	47.952	97.178	604.58	225.03	-79.549	393.72	1119.4	268.59	303.9	612.21	206.04	559.14	26.49	-80.379	352.95	795.76	227.13	546.78	1675.8	51.715	436.98	1147	334.04	567.28	407.29	-68.745	620.91	114.38	-46.017	556.43	318.27	-143.35	541.02	1672.2	-24.858	331.48	701.94	219.52	426.82	1033.7	186.98	490.81	524.17	-1.1035	585.3	319.32	-72.912	171.59	96.929	64.5	711.21	65.402	-156.2	268.89	512.86	65.897	420.02	1463	177.34	636.63	946.31	240.47	605.99	911.07	303.24	596.84	87.18	-126.59	247.24	274.58	112.77	787.8	113.09	-96.247	747.46	91.181	-77.973
758	3.79	679.95	916.73	287.5	460.9	618.15	-141.82	398.91	687.93	185.3	363.78	1636.4	-52.396	278.59	852.27	-212.66	309.19	1287.5	-226	258.59	984.48	-232.61	343.82	803.14	-222.06	529.82	1017	330.51	255.52	1137.2	-234.67	213.58	188.37	105.32	281.73	361.67	122.83	330.95	29.003	124.95	225.14	273.43	178.98	225.59	25.564	180.02	376.08	1645.1	88.951	353.07	860.96	-175.3	496.26	729	-123.01	230.34	1137.4	-160.57	216.93	1026.2	92.524	336.75	1510	26.463	267.2	496.84	197.52	274.98	38.095	100.47	433.91	706.57	-151.88	500.5	1240.6	18.531	417.11	1026.6	-102.11	137.29	79.135	145.6	270.5	1427.4	170.26	222.69	1291.6	40.804	408.27	796.43	-156.5	210.72	1018.7	14.966	463.86	1415.7	18.723	483.49	524.24	-132.51	436.74	1301.2	282.65	389.51	1456.8	-145.12	76.697	48.859	97.078	613.55	225.73	-79.159	399.55	1118.7	268.31	307.01	612.21	205.76	571.01	26.37	-80.362	357.13	795.41	226.77	551.87	1675.2	51.181	442.65	1146.6	333.79	573.51	407.49	-68.328	631.38	115.27	-45.638	564.23	318.32	-143.05	546.1	1671.6	-25.399	335.09	701.74	219.12	431.93	1033.2	186.74	494.59	522.97	-0.43522	592.89	319.76	-72.511	171.98	97.364	64.53	723.13	67.275	-155.38	271.63	512.9	65.685	424.99	1462.4	176.89	643.45	947.25	239.72	613.09	911.66	302.43	608.11	87.744	-126.34	248.52	274.65	112.76	798.79	115.95	-94.89	758.6	93.528	-76.864
759	3.795	686.9	917.81	286.68	464.72	616.58	-142.18	402.66	687.34	185.24	368.85	1635.7	-52.932	282.07	851.66	-212.69	314.12	1286.8	-226.42	262.62	983.94	-232.74	347.07	802.24	-221.96	536.18	1017	329.96	260.15	1136.7	-234.91	214.47	188.63	105.32	283.57	361.58	122.79	330.92	28.956	124.93	226.39	273.72	178.94	225.54	25.563	179.94	381.17	1644.5	88.416	356.57	860.09	-175.27	500.5	727.27	-123.29	234.86	1137	-160.86	222.27	1025.5	91.845	341.79	1509.4	25.931	269.71	496.98	197.35	275.04	38.128	100.47	438.12	705.12	-152.28	505.73	1240	18.132	422.65	1025.9	-102.43	137.51	79.824	145.6	275.47	1426.7	169.69	227.8	1290.9	40.11	412.86	795.09	-156.86	216.16	1017.9	14.302	468.97	1415	18.273	488.18	523.27	-132.27	441.96	1300.6	282.24	394.68	1456.1	-145.64	76.837	49.821	96.99	622.05	226.29	-78.707	405.32	1118.1	268	310.22	612.2	205.48	582.02	26.249	-80.099	361.37	795.04	226.38	556.96	1674.6	50.616	448.25	1146.1	333.51	579.68	407.59	-67.935	641.18	116.03	-45.154	571.7	318.29	-142.7	551.18	1671	-25.97	338.78	701.54	218.72	437.06	1032.7	186.49	498.61	521.94	0.17184	600.2	320.1	-72.09	172.4	97.83	64.568	734.13	68.85	-154.51	274.52	512.91	65.473	429.96	1461.7	176.42	650.18	948.12	239	620.07	912.2	301.64	618.57	88.204	-125.94	249.88	274.73	112.76	809.01	118.4	-93.627	768.95	95.57	-75.782
760	3.8	693.72	918.83	285.9	468.73	615.1	-142.52	406.48	686.77	185.2	373.91	1635.1	-53.493	285.64	851.04	-212.79	319.1	1286.2	-226.88	266.75	983.39	-232.93	350.41	801.33	-221.9	542.44	1017	329.42	264.86	1136.1	-235.19	215.4	188.9	105.32	285.52	361.49	122.75	330.9	28.904	124.92	227.73	274.02	178.9	225.51	25.567	179.87	386.26	1643.9	87.854	360.15	859.2	-175.3	504.88	725.67	-123.63	239.45	1136.6	-161.19	227.64	1024.8	91.127	346.83	1508.7	25.373	272.35	497.11	197.17	275.11	38.176	100.48	442.47	703.75	-152.73	510.96	1239.5	17.703	428.22	1025.2	-102.77	137.77	80.555	145.61	280.44	1425.9	169.09	232.93	1290.1	39.389	417.54	793.81	-157.29	221.62	1017	13.601	474.09	1414.4	17.796	493.01	522.34	-132.02	447.15	1300.1	281.81	399.85	1455.4	-146.18	76.991	50.843	96.919	630.08	226.7	-78.191	411.03	1117.4	267.66	313.54	612.17	205.19	592.16	26.099	-79.6	365.66	794.67	225.97	562.04	1674	50.019	453.8	1145.7	333.19	585.77	407.59	-67.565	650.31	116.64	-44.565	578.83	318.14	-142.29	556.25	1670.3	-26.573	342.55	701.33	218.33	442.19	1032.3	186.22	502.91	521.08	0.71508	607.25	320.3	-71.645	172.85	98.332	64.616	744.22	70.087	-153.59	277.57	512.89	65.257	434.92	1461.1	175.93	656.79	948.93	238.3	626.92	912.67	300.85	628.21	88.524	-125.38	251.32	274.8	112.75	818.48	120.4	-92.464	778.52	97.263	-74.731
